{"asset":{"version":"2.0","generator":"PlaceholderGenerator 1.0"},"scene":0,"scenes":[{"nodes":[0]}],"nodes":[{"name":"PlaceholderUtility","mesh":0}],"meshes":[{"name":"PlaceholderUtilityMesh","primitives":[{"attributes":{"POSITION":0,"NORMAL":1},"indices":2,"material":0,"mode":4}]}],"materials":[{"name":"PlaceholderUtilityMaterial","pbrMetallicRoughness":{"baseColorFactor":[0.85,0.35,0.95,1.0],"metallicFactor":0.1,"roughnessFactor":0.65}}],"accessors":[{"bufferView":0,"componentType":5126,"count":16,"type":"VEC3","min":[-0.5,-0.5,-0.3],"max":[0.5,0.5,0.3]},{"bufferView":1,"componentType":5126,"count":16,"type":"VEC3"},{"bufferView":2,"componentType":5123,"count":48,"type":"SCALAR"}],"bufferViews":[{"buffer":0,"byteOffset":0,"byteLength":192,"target":34962},{"buffer":0,"byteOffset":192,"byteLength":192,"target":34962},{"buffer":0,"byteOffset":384,"byteLength":96,"target":34963}],"buffers":[{"byteLength":480,"uri":"data:application/octet-stream;base64,"}]}
