{"asset":{"version":"2.0","generator":"PlaceholderGenerator 1.0"},"scene":0,"scenes":[{"nodes":[0]}],"nodes":[{"name":"PlaceholderSecondary","mesh":0}],"meshes":[{"name":"PlaceholderSecondaryMesh","primitives":[{"attributes":{"POSITION":0,"NORMAL":1},"indices":2,"material":0,"mode":4}]}],"materials":[{"name":"PlaceholderSecondaryMaterial","pbrMetallicRoughness":{"baseColorFactor":[0.95,0.55,0.2,1.0],"metallicFactor":0.1,"roughnessFactor":0.65}}],"accessors":[{"bufferView":0,"componentType":5126,"count":12,"type":"VEC3","min":[-0.4,-0.15,-0.1],"max":[0.4,0.15,0.2]},{"bufferView":1,"componentType":5126,"count":12,"type":"VEC3"},{"bufferView":2,"componentType":5123,"count":48,"type":"SCALAR"}],"bufferViews":[{"buffer":0,"byteOffset":0,"byteLength":144,"target":34962},{"buffer":0,"byteOffset":144,"byteLength":144,"target":34962},{"buffer":0,"byteOffset":288,"byteLength":96,"target":34963}],"buffers":[{"byteLength":384,"uri":"data:application/octet-stream;base64,"}]}
