{"asset":{"version":"2.0","generator":"PlaceholderGenerator 1.0"},"scene":0,"scenes":[{"nodes":[0]}],"nodes":[{"name":"PlaceholderMelee","mesh":0}],"meshes":[{"name":"PlaceholderMeleeMesh","primitives":[{"attributes":{"POSITION":0,"NORMAL":1},"indices":2,"material":0,"mode":4}]}],"materials":[{"name":"PlaceholderMeleeMaterial","pbrMetallicRoughness":{"baseColorFactor":[0.45,0.95,0.3,1.0],"metallicFactor":0.1,"roughnessFactor":0.65}}],"accessors":[{"bufferView":0,"componentType":5126,"count":16,"type":"VEC3","min":[-0.4,-1.0,-0.4],"max":[0.4,1.1,0.4]},{"bufferView":1,"componentType":5126,"count":16,"type":"VEC3"},{"bufferView":2,"componentType":5123,"count":72,"type":"SCALAR"}],"bufferViews":[{"buffer":0,"byteOffset":0,"byteLength":192,"target":34962},{"buffer":0,"byteOffset":192,"byteLength":192,"target":34962},{"buffer":0,"byteOffset":384,"byteLength":144,"target":34963}],"buffers":[{"byteLength":528,"uri":"data:application/octet-stream;base64,"}]}
